<?xml version="1.0" encoding="utf-8"?>
<svg version="1" width="684" height="684" viewBox="0 0 513.000000 513.000000" xmlns="http://www.w3.org/2000/svg">
  <path d="M250.3 11.8c-15.4 12.8-28.8 29.2-35.8 43.7-6 12.3-7.8 19.8-8 33-.3 12.9 2.1 23.3 8.1 36.1 7.1 14.9 15.1 25.3 33.1 42.7l9.2 9 5.8.3c8.1.4 22.9 3.6 35.8 7.8 6 1.9 11.1 3.4 11.3 3.1.6-.6-11.4-17.9-17.5-25.1-3.2-3.8-8-9.1-10.8-11.7-2.7-2.7-8.9-8.7-13.6-13.3-19.8-19.3-29.4-40.8-25.8-57.6 1.3-6.1 6.2-15.6 10.6-20.7l3.9-4.3 3.6 3.6c7.8 7.8 12.6 20.2 12.2 31.1-.3 7.7-4 18.7-8.9 26.5l-2.4 3.8 2.1 2.9c2.8 3.7 21.1 22.3 21.9 22.3 1 0 6.9-8.4 10.5-15 7.7-13.7 11.5-27.7 11.5-41.4-.1-9.7-.2-10.4-2.5-19.4-3.8-15-13.3-29.9-29.1-45.8C265.5 13.3 258.3 7 256.7 7c-.3 0-3.2 2.2-6.4 4.8zM192 65.4c-60.9 21-108.4 69.2-127.4 129.2-1.4 4.3-2.4 8-2.2 8.1.2.2 3.4-.4 7.2-1.3 4.1-1 11.8-1.8 18.7-1.9l11.8-.1 3.3-7.5c11.2-25.7 26.5-46.2 47.9-64.1 11.7-9.8 30.1-20.6 43.7-25.9l4.5-1.7.1-8.4c.2-9.4.9-15.5 2.9-24 1-4.3 1-5.8.2-5.8-.7 0-5.5 1.5-10.7 3.4zM311.7 67.2c1.9 7.2 2.6 13.7 2.7 24.1l.1 8.9 5.8 2.3c12.2 5 32.5 16.6 37.7 21.6.8.8 3.6 3.1 6.2 5.2 17.9 14.4 35.9 38.5 45.7 61.3l3.9 8.9 8.3.1c9.8.1 17.6 1 24.8 2.9 2.8.7 5.1 1.2 5.1 1 0-1.1-4.7-15.3-7.2-21.5-20.2-50.9-61.8-92.6-112.9-113.1-5.7-2.3-19.7-6.9-20.9-6.9-.4 0-.1 2.4.7 5.2zM224.3 157.8c-8.8 9.1-18.2 22-22.8 31.2-4.9 9.9-11.2 27.6-13.1 36.9-.3 1.2-1.1 5.1-1.9 8.5-.7 3.3-1.6 8.6-2 11.6-.4 3-.8 6.7-1.1 8.1-.3 2.1.5 3.2 4.9 6.4 11.9 8.8 16.6 11.7 23.9 14.6 4.5 1.8 4.8 1.8 4.9.1 0-.9.2-2.6.4-3.7s.6-4.9 1-8.5c.8-7.4.7-6.7 3-18 4.4-21.6 13-42.2 24-57.3l5.7-7.8-12-11.9c-6.5-6.6-12.2-12-12.6-12-.3 0-1.4.8-2.3 1.8z" style="fill: rgb(44, 62, 114);"/>
  <path d="M252.7 188.7c-7.5 9.9-16.8 26.5-15.5 27.9.2.1 3 .6 6.3.9 13.6 1.4 20.4 2.5 32.5 5.4 19.6 4.6 39.7 14 53.4 25l4 3.2 12.2-12.2c6.8-6.8 12-12.7 11.7-13.2-2.1-3.4-17.5-15.5-26.4-20.8-17.2-10.3-45-18.8-69.6-21.5-4.1-.4-4.3-.3-8.6 5.3zM179.8 208.6c-15 10.2-25.8 19.6-39.3 34.4-7.9 8.6-17.1 16-27.5 22.2-3.5 2-12.8 5.5-17 6.4-13.1 2.6-29.1-2.6-38.3-12.3l-2.7-2.9 4.5-3.9c4.2-3.5 5.8-4.6 12.6-8.1 4-2.1 13.5-3.6 19-3 7.7.8 12.8 2.5 21.2 6.8l7.7 4 4-2.7c4.3-3 21-20 21-21.4 0-.5-3-2.8-6.6-5.1-31.9-20.2-61.2-21.9-89.3-5.3-7.9 4.7-17.7 12.2-24.6 19-4.9 4.8-15.7 17-16.8 19-1.1 1.8 3.8 7.9 16.3 20.3 21.7 21.5 42.9 31.4 66.5 31.3 25-.2 46.1-10.9 71.8-36.2 13-12.9 13.8-13.8 14.2-18.1 1.1-10.8 1.8-15.1 4.1-24.2 1.3-5.3 3.7-13.3 5.4-17.7 1.6-4.5 2.8-8.1 2.5-8.1-.2 0-4.2 2.5-8.7 5.6zM413.8 206.5c-.2.2-2 .6-4.1.9-9.9 1.6-23.1 7.5-36.7 16.4-10.3 6.8-36 31.8-35.6 34.6.2 1.5-.5 6.7-2.9 21.6-.5 3.5-7.4 25.9-8.6 28.2-1.6 2.9.2 2.1 9.5-4.2 12.8-8.8 22.6-17.2 35.9-31.2 15.5-16.3 24.7-23.1 38.6-28.5 5.3-2.1 8.4-2.6 16.1-2.7 8.7-.1 10.1.2 16 3 3.6 1.7 8.9 5 11.8 7.4l5.3 4.3-2.3 2.5c-3.7 4-13.8 10.1-19.4 11.8-5.3 1.5-14.5 1.9-19.7.9-4.5-.9-13.8-4.6-18.7-7.5-2.5-1.5-5.1-2.5-5.9-2.2-2.2.7-4.7 3-15.3 13.5l-9.8 9.9 3.8 2.8c11.7 8.4 28.2 15.8 40.1 18 16.1 2.9 32.8.2 48.9-7.9 12.1-6.1 29.2-20.7 41.5-35.4l4.9-5.7-3.4-4.5c-5.6-7.5-24.9-25.8-32.3-30.7-16.7-11-32.1-16-48.2-15.7-5.1.1-9.4.3-9.5.4z" style="fill: rgb(44, 62, 114);"/>
  <path d="M296.3 240.2c0 5-1.7 19-2.8 22.8-.2.8-.7 3.5-1 6-.4 2.4-.9 4.8-1.2 5.2-.2.5-.7 2.1-.9 3.6-2.5 13.9-16.6 43-25.6 52.6-1 1.1-1.8 2.3-1.8 2.6 0 .4 5.5 6.2 12.2 12.9l12.2 12.2 4.5-4.8c17.6-19 30.8-46.8 35.7-75.3.2-1.4.6-3.5.9-4.7.3-1.3.8-4.9 1.1-8 .3-3.2.7-6.4.9-7.1.9-2.6-28-21.2-32.9-21.2-.8 0-1.3 1.4-1.3 3.2z" style="fill: rgb(44, 62, 114);"/>
  <path d="M167.5 275l-12 12.1 4.6 4.2c10 9.1 16.2 13.7 25.5 19C201 319 231.2 328 250 329.5l7.5.6 3.3-4.6c7.9-10.9 13-19.5 15-25.2 1.3-3.8 1.2-3.8-9.3-4.8-11.9-1.1-34.8-5.6-38.5-7.5-.8-.4-1.8-.8-2.3-.8-6.2-.3-40.4-18.7-43.2-23.2-1.3-2.1-3.4-.6-15 11zM62.6 312.6c4.7 19.7 21.9 52.8 36.7 70.9 24.2 29.4 56.9 52.4 92 64.4 12.4 4.3 12.5 4.2 10.7-1.9-1.5-5.3-2.4-14.6-2.3-24.1l.1-8.6-3.7-1.3c-6-2.1-23-10.8-30.2-15.5-28.6-18.8-51.9-47.5-64.7-80l-1.2-3-9.3.2c-9.6.1-15.8-.6-26-3.2-2.7-.7-2.8-.6-2.1 2.1zM445.8 311.6c-7.3 1.9-13.5 2.6-23.5 2.5-9.3 0-9.3.1-9.9 2.7-1 4-7.1 16.7-12.3 25.2-17.7 29.6-46.5 54.9-77.7 68.1l-8.1 3.4-.6 13.5c-.4 7.7-1.3 15.6-2.2 18.4-2 6.4-1.9 6.7.8 5.7 1.2-.5 2.4-.8 2.7-.8 1 .1 8.8-2.6 17.3-6 45.8-18.3 83.4-53.2 106.2-98.4 3-6 5.2-10.9 4.9-10.9-.2 0 .2-1.2 1-2.8 2.8-5.4 7.7-21.1 6.8-21.5-.4-.2-2.8.2-5.4.9zM206.6 330.7c8 12.6 16.3 22.5 31.3 37.3 16.7 16.4 21.8 22.5 27.4 33 10.6 19.5 9.2 38.1-3.8 52.5l-4.5 5-4.3-4.7c-13.3-14.2-14.6-33.2-3.8-53.4l3.8-7-1.9-2.5c-2.5-3.1-11.1-12-17.6-18.3l-5-4.8-4.2 6.3c-16.3 24.3-21.2 49-14.4 71.9 5.4 18.4 20.7 39.1 42.1 56.8l5.1 4.2 5.3-4.2c6.6-5.2 18.2-16.8 23.4-23.3 2.2-2.8 4.2-5.2 4.5-5.5 3.2-3 12.3-20.7 14.4-28.1 2.5-8.5 2.7-9.7 3-19.4 1-25.8-10.9-50.1-37-76.1-12.4-12.4-13.3-13.1-17.3-13.2-4.1-.2-9.2-.9-12.1-1.7-.8-.2-3.4-.7-5.7-1-4.7-.7-18-4.5-26.1-7.5-2.9-1.1-5.5-2-5.8-2-.2 0 1.2 2.6 3.2 5.7z" style="fill: rgb(44, 62, 114);"/>
</svg>