<?xml version="1.0" encoding="UTF-8" standalone="no"?>
<!-- Created with Inkscape (http://www.inkscape.org/) -->

<svg
   xmlns:dc="http://purl.org/dc/elements/1.1/"
   xmlns:cc="http://creativecommons.org/ns#"
   xmlns:rdf="http://www.w3.org/1999/02/22-rdf-syntax-ns#"
   xmlns:svg="http://www.w3.org/2000/svg"
   xmlns="http://www.w3.org/2000/svg"
   xmlns:sodipodi="http://sodipodi.sourceforge.net/DTD/sodipodi-0.dtd"
   xmlns:inkscape="http://www.inkscape.org/namespaces/inkscape"
   width="502"
   height="284.14307"
   viewBox="0 0 132.82083 75.179519"
   version="1.1"
   id="svg3988"
   inkscape:version="0.92.4 (5da689c313, 2019-01-14)"
   sodipodi:docname="NHS Wales logo.svg">
  <defs
     id="defs3982" />
  <sodipodi:namedview
     id="base"
     pagecolor="#ffffff"
     bordercolor="#666666"
     borderopacity="1.0"
     inkscape:pageopacity="0.0"
     inkscape:pageshadow="2"
     inkscape:zoom="1.979899"
     inkscape:cx="87.041859"
     inkscape:cy="76.295538"
     inkscape:document-units="mm"
     inkscape:current-layer="layer1"
     showgrid="false"
     units="px"
     fit-margin-top="1"
     fit-margin-left="1"
     fit-margin-bottom="1"
     fit-margin-right="1"
     inkscape:window-width="1920"
     inkscape:window-height="1001"
     inkscape:window-x="-9"
     inkscape:window-y="-9"
     inkscape:window-maximized="1" />
  <metadata
     id="metadata3985">
    <rdf:RDF>
      <cc:Work
         rdf:about="">
        <dc:format>image/svg+xml</dc:format>
        <dc:type
           rdf:resource="http://purl.org/dc/dcmitype/StillImage" />
        <dc:title></dc:title>
      </cc:Work>
    </rdf:RDF>
  </metadata>
  <g
     inkscape:label="Layer 1"
     inkscape:groupmode="layer"
     id="layer1"
     transform="translate(-4.2184574,-66.998777)">
    <g
       transform="matrix(0.46023867,0,0,0.46023867,-205.99525,28.125095)"
       id="g3943">
      <path
         style="fill:#3d4f7f;fill-opacity:1;fill-rule:nonzero;stroke:none"
         d="m 547.69531,129.96094 c 11.53516,-15.52344 9.19922,-30.42969 -9.28515,-44.921877 -19.82032,15.535157 -20.69922,31.507817 -8.08594,46.824217 1.86328,2.17969 8.08594,8.08984 8.08594,8.08984 0,0 6.91015,-0.13281 17.42578,4.03907 0,0 -4.77344,-8.36328 -11.63672,-14.28516 -7.90625,-6.82031 -16.69531,-19.02344 -5.78906,-29.13281 7.35937,6.82422 5.74609,14.60547 1.48828,21.03516 0,0 0.48828,1.55859 5.75,6.44531 0.76172,0.70703 1.35937,1.37109 2.04687,1.90625"
         id="path2558"
         inkscape:connector-curvature="0" />
      <path
         style="fill:#3d4f7f;fill-opacity:1;fill-rule:nonzero;stroke:none"
         d="m 536.55078,141.31641 c 0,0 -5.23437,5.5664 -8.16406,14.8789 -2.61719,8.3086 -2.87891,16.36328 -2.87891,16.36328 -4.41797,-1.04297 -10.91797,-6.49218 -10.91797,-6.49218 0.72266,-10.1836 4.57422,-18.95313 4.57422,-18.95313 3.01172,-7.86328 9.44922,-13.74219 9.44922,-13.74219 z m 0,0"
         id="path2560"
         inkscape:connector-curvature="0" />
      <path
         style="fill:#3d4f7f;fill-opacity:1;fill-rule:nonzero;stroke:none"
         d="m 502.23828,156.85937 c -15.51953,-11.53125 -30.42578,-9.19921 -44.91406,9.28907 15.53125,19.82031 31.5,20.69922 46.82031,8.08593 2.17969,-1.86718 8.08594,-8.08593 8.08594,-8.08593 0,0 -0.12891,-6.91407 4.04687,-17.42969 0,0 -8.36718,4.77734 -14.28906,11.64062 -6.82422,7.90625 -19.02344,16.69532 -29.13672,5.78907 6.82813,-7.36328 14.60938,-5.75 21.04297,-1.49219 0,0 1.55078,-0.48438 6.44141,-5.75 0.70312,-0.75781 1.37109,-1.35938 1.90234,-2.04688"
         id="path2562"
         inkscape:connector-curvature="0" />
      <path
         style="fill:#3d4f7f;fill-opacity:1;fill-rule:nonzero;stroke:none"
         d="m 513.59766,168.00391 c 0,0 5.5664,5.23828 14.8789,8.16796 8.3086,2.61329 16.36328,2.87891 16.36328,2.87891 -1.04297,4.41406 -6.49218,10.91797 -6.49218,10.91797 -10.1836,-0.72656 -18.95313,-4.57813 -18.95313,-4.57813 -7.86328,-3.00781 -13.74219,-9.44921 -13.74219,-9.44921 z m 0,0"
         id="path2564"
         inkscape:connector-curvature="0" />
      <path
         style="fill:#3d4f7f;fill-opacity:1;fill-rule:nonzero;stroke:none"
         d="m 529.13672,202.31641 c -11.52735,15.51953 -9.19531,30.42968 9.29297,44.92187 19.8164,-15.53516 20.69922,-31.50781 8.08593,-46.82422 -1.86328,-2.17969 -8.08593,-8.08984 -8.08593,-8.08984 0,0 -6.91407,0.13281 -17.42969,-4.04297 0,0 4.77734,8.36328 11.64062,14.28516 7.90625,6.82421 16.69532,19.02343 5.78907,29.13671 -7.36328,-6.82421 -5.75,-14.60546 -1.49219,-21.03906 0,0 -0.48438,-1.55469 -5.75,-6.4414 -0.75781,-0.70704 -1.35547,-1.375 -2.05078,-1.90625"
         id="path2566"
         inkscape:connector-curvature="0" />
      <path
         style="fill:#3d4f7f;fill-opacity:1;fill-rule:nonzero;stroke:none"
         d="m 540.28516,190.96094 c 0,0 5.23828,-5.57032 8.16796,-14.88282 2.60938,-8.30468 2.87891,-16.36328 2.87891,-16.36328 4.41406,1.04688 10.91406,6.49219 10.91406,6.49219 -0.72265,10.18359 -4.57422,18.94922 -4.57422,18.94922 -3.00781,7.87109 -9.44921,13.75 -9.44921,13.75 z m 0,0"
         id="path2568"
         inkscape:connector-curvature="0" />
      <path
         style="fill:#3d4f7f;fill-opacity:1;fill-rule:nonzero;stroke:none"
         d="m 574.59766,175.41797 c 15.51953,11.53125 30.42968,9.19922 44.91796,-9.28906 -15.53515,-19.82032 -31.5039,-20.69922 -46.82031,-8.08594 -2.17969,1.86719 -8.08984,8.08594 -8.08984,8.08594 0,0 0.1289,6.91015 -4.04297,17.42578 0,0 8.36328,-4.77344 14.28516,-11.64063 6.82421,-7.90234 19.02343,-16.6914 29.13671,-5.78515 -6.82812,7.36328 -14.60546,5.74609 -21.03906,1.48828 0,0 -1.55469,0.48828 -6.44531,5.7539 -0.70313,0.75391 -1.37109,1.35547 -1.90234,2.04688"
         id="path2570"
         inkscape:connector-curvature="0" />
      <path
         style="fill:#3d4f7f;fill-opacity:1;fill-rule:nonzero;stroke:none"
         d="m 563.23828,164.26953 c 0,0 -5.56641,-5.23437 -14.875,-8.16406 -8.30859,-2.61328 -16.36719,-2.87891 -16.36719,-2.87891 1.04297,-4.41406 6.49219,-10.91797 6.49219,-10.91797 10.18359,0.72266 18.95313,4.57813 18.95313,4.57813 7.86328,3.00781 13.74609,9.44922 13.74609,9.44922 z m 0,0"
         id="path2572"
         inkscape:connector-curvature="0" />
      <path
         style="fill:#ccb07f;fill-opacity:1;fill-rule:nonzero;stroke:none"
         d="m 475.20703,148.78516 c 2.74609,-0.875 5.67578,-1.35157 8.71094,-1.35157 1.21875,0 2.41015,0.0664 3.58984,0.21485 5.46485,-15.04297 17.4375,-26.98828 32.48438,-32.44141 -0.13672,-1.125 -0.16797,-2.27734 -0.16797,-3.4375 0,-3.09765 0.48047,-6.07812 1.39062,-8.875 -22.3125,6.05469 -39.90625,23.60156 -46.00781,45.89063"
         id="path2574"
         inkscape:connector-curvature="0" />
      <path
         style="fill:#ccb07f;fill-opacity:1;fill-rule:nonzero;stroke:none"
         d="m 521.06641,229.35156 c -0.875,-2.75 -1.35157,-5.67578 -1.35157,-8.71484 0,-1.21485 0.0703,-2.40625 0.21485,-3.58594 -15.04297,-5.46484 -26.98828,-17.4375 -32.44141,-32.48828 -1.125,0.13672 -2.27734,0.16797 -3.4375,0.16797 -3.09766,0 -6.08203,-0.48047 -8.875,-1.38672 6.05469,22.3125 23.59766,39.90234 45.89063,46.00781"
         id="path2576"
         inkscape:connector-curvature="0" />
      <path
         style="fill:#ccb07f;fill-opacity:1;fill-rule:nonzero;stroke:none"
         d="m 601.63281,183.49219 c -2.75,0.87109 -5.67578,1.34765 -8.71484,1.34765 -1.21485,0 -2.41016,-0.0664 -3.58594,-0.21484 -5.46875,15.04297 -17.44141,26.99219 -32.48437,32.44531 0.13281,1.125 0.16406,2.27735 0.16406,3.4375 0,3.09766 -0.47656,6.07813 -1.38672,8.8711 22.30859,-6.05079 39.90234,-23.59766 46.00781,-45.88672"
         id="path2578"
         inkscape:connector-curvature="0" />
      <path
         style="fill:#ccb07f;fill-opacity:1;fill-rule:nonzero;stroke:none"
         d="m 555.77344,102.92578 c 0.875,2.7461 1.35156,5.67578 1.35156,8.71485 0,1.21484 -0.0703,2.40625 -0.21875,3.58593 15.04297,5.46485 26.98828,17.4336 32.44141,32.48438 1.125,-0.13672 2.27734,-0.16797 3.4414,-0.16797 3.09766,0 6.07813,0.48047 8.875,1.38672 -6.05859,-22.3086 -23.60156,-39.89844 -45.89062,-46.00391"
         id="path2580"
         inkscape:connector-curvature="0" />
      <path
         style="fill:#3d4f7f;fill-opacity:1;fill-rule:nonzero;stroke:none"
         d="m 638.35156,191.73437 v -18.5625 h 0.94531 l 27.33985,29.23047 0.38672,0.33594 c 0.11328,-2.00391 0.16797,-4.05859 0.16797,-6.05859 v -17.78125 l -0.22266,-4.44922 -0.0547,-0.44531 c 0.78125,0.11328 1.61328,0.16796 2.39063,0.16796 0.4414,0 0.94531,-0.0547 1.39062,-0.16796 -0.0547,0.44531 -0.0547,0.89062 -0.11328,1.33593 l -0.27734,5.44532 -0.50391,13.17187 -0.16406,12.44531 0.16406,6.28125 h -0.83203 c -1.10938,-1.33593 -2.22266,-2.66797 -3.38672,-3.94531 l -9.05859,-10.05859 -15.50391,-16.50391 -0.11328,5.22266 c -0.0547,2.77734 0,5.5 0,8.22265 v 4.44532 l 0.16797,6.55859 0.27734,5.33594 c -1.27734,-0.22266 -2.55469,-0.22266 -3.83203,0 0.21875,-2.44532 0.38672,-4.89063 0.44141,-7.33594 z m 0,0"
         id="path2582"
         inkscape:connector-curvature="0" />
      <path
         style="fill:#3d4f7f;fill-opacity:1;fill-rule:nonzero;stroke:none"
         d="m 685.51953,192.67578 0.16797,12.05859 0.22266,6.00391 0.10937,1.22266 c -0.83203,-0.0586 -1.72266,-0.27735 -2.55469,-0.27735 -1,0 -1.94531,0.21875 -2.94531,0.27735 0.0547,-0.39063 0.0547,-0.83594 0.11328,-1.22266 l 0.22266,-4.39062 0.21875,-13 v -13.5625 l -0.27735,-5.89063 c 0.94532,0.0547 1.89063,0.21875 2.83594,0.21875 0.83203,0 1.72266,-0.10547 2.55469,-0.16406 -0.0547,0.5 -0.0547,1 -0.10938,1.5 l -0.22265,5.05469 -0.27735,9.67187 7.16797,0.16797 15.89453,-0.16797 v -11.78125 l -0.28125,-4.5 c 0.94532,0.0547 1.89063,0.21875 2.83594,0.21875 0.88672,0 1.72266,-0.10547 2.61328,-0.16406 -0.11328,0.5 -0.11328,1 -0.16797,1.5 l -0.5039,18.11719 0.16797,12.5039 0.28125,5.89063 c -0.83594,-0.0586 -1.66797,-0.27735 -2.5,-0.27735 -1.00391,0 -1.94532,0.21875 -2.94922,0.27735 0.0547,-0.39063 0.0547,-0.83594 0.11328,-1.22266 l 0.27734,-5.72266 0.16407,-12.33984 z m 0,0"
         id="path2584"
         inkscape:connector-curvature="0" />
      <path
         style="fill:#3d4f7f;fill-opacity:1;fill-rule:nonzero;stroke:none"
         d="m 722.85547,204.625 c 2.16797,3.55859 4.66797,5.66797 9.0039,5.66797 4.5,0 7.72266,-3.61328 7.72266,-8 0,-3.72266 -2.5,-5.61328 -5.61328,-7.00391 -2.60938,-1.22265 -5.44531,-2.10937 -7.83203,-3.72265 -2.50781,-1.66797 -3.94922,-4.61329 -3.94922,-7.61329 0,-7.16796 5.66797,-10.67187 12.33594,-10.67187 2.66797,0 5.89062,0.83203 7.94922,2.66797 -0.66797,1.44531 -1.0586,3 -1.5,4.55469 h -0.5586 c -1.16797,-2.9961 -3.60937,-5 -6.88672,-5 -3.83984,0 -7.0039,2.72265 -7.0039,6.67187 0,2.10938 0.77734,3.83594 2.39062,5.16797 0.88672,0.77734 1.10938,0.83203 2.16406,1.33203 0.66797,0.33594 1.39063,0.66797 2.11329,0.94531 0.83203,0.33203 1.66796,0.66407 2.5,1.05469 0.83203,0.39063 1.77734,0.72266 2.55859,1.16797 1.21875,0.66406 2.60937,1.33594 3.5,2.39062 1.39062,1.72266 2.27734,3.61329 2.27734,5.89063 0,7.94531 -6.16797,12.55859 -13.72656,12.55859 -2.72266,0 -7.17187,-1.05859 -9.05859,-3.11328 0.55859,-1.60937 0.83593,-3.27734 1.05859,-4.94531 z m 0,0"
         id="path2586"
         inkscape:connector-curvature="0" />
      <path
         style="fill:#ccb07f;fill-opacity:1;fill-rule:nonzero;stroke:none"
         d="m 644.67969,235.17187 c -0.38672,-0.0703 -0.82422,-0.12109 -1.23828,-0.12109 -0.41016,0 -0.85157,0.0508 -1.26172,0.12109 -1.38672,-5.34765 -3.04297,-10.625 -4.66797,-15.92578 l -0.17188,-0.70312 c 0.65625,0.0469 1.3125,0.12109 1.96875,0.12109 0.65625,0 1.33594,-0.0742 1.9961,-0.12109 0.97265,4.08203 2.08984,8.12109 3.20703,12.15234 1.38281,-4.05859 2.96484,-8.04687 4.20703,-12.15234 0.41406,0.0703 0.82422,0.12109 1.23828,0.12109 0.39063,0 0.80078,-0.0508 1.19141,-0.12109 1.09375,4.10547 2.67578,8.07031 3.86718,12.15234 1.28907,-4.00781 2.57813,-8.04687 3.59766,-12.15234 0.36328,0.0469 0.72656,0.12109 1.09375,0.12109 0.36328,0 0.75391,-0.0508 1.09375,-0.12109 v 0.1914 c -1.99219,5.42188 -3.89062,10.89454 -5.56641,16.4375 -0.39062,-0.0703 -0.82421,-0.12109 -1.23828,-0.12109 -0.41406,0 -0.85547,0.0508 -1.26953,0.12109 -1.0664,-4.00781 -2.45312,-7.92578 -3.86328,-11.8164 -1.35937,3.86328 -2.79687,7.68359 -4.10937,11.57422 z m 0,0"
         id="path2588"
         inkscape:connector-curvature="0" />
      <path
         style="fill:#ccb07f;fill-opacity:1;fill-rule:nonzero;stroke:none"
         d="m 669.3125,234.97656 1.79687,-4.15625 c 1.79688,-4.08594 3.52344,-8.21875 5.05469,-12.42187 0.31641,0.0469 0.60938,0.11718 0.92578,0.11718 0.31641,0 0.60938,-0.0703 0.92188,-0.11718 l 0.17187,0.41015 c 2.01953,5.32422 4.13282,10.625 6.3711,15.875 l 0.12109,0.26953 v 0.21875 c -0.68359,-0.0469 -1.38672,-0.12109 -2.06641,-0.12109 -0.67968,0 -1.35937,0.0508 -2.04296,0.12109 -0.51172,-1.67968 -1.02344,-3.32812 -1.67969,-4.96093 -0.89844,-0.0234 -1.77344,-0.0703 -2.67188,-0.0703 -1,0 -1.96875,0.0234 -2.96484,0.0469 l -0.12109,0.34375 c -0.53516,1.52734 -1.14454,3.03516 -1.53516,4.64062 -0.36328,-0.0703 -0.75391,-0.12109 -1.14063,-0.12109 -0.36718,0 -0.77734,0.0508 -1.14062,0.12109 z m 4.57031,-6.24609 h 4.44531 c -0.67968,-1.89844 -1.41015,-3.79297 -2.16406,-5.66406 -0.77734,1.79687 -1.53125,3.59375 -2.21094,5.4414 z m 0,0"
         id="path2590"
         inkscape:connector-curvature="0" />
      <path
         style="fill:#ccb07f;fill-opacity:1;fill-rule:nonzero;stroke:none"
         d="m 694.78906,218.54297 c 0.65625,0.0469 1.3125,0.12109 1.96875,0.12109 0.65625,0 1.33594,-0.0742 1.99219,-0.12109 -0.0469,1.45703 -0.17188,2.89062 -0.19141,4.35156 -0.0234,0.94922 -0.0234,1.89453 -0.0234,2.84375 v 4.59766 c 0,1.01953 0.043,2.04297 0.043,3.05859 l 1.3125,-0.0469 c 1.4375,-0.0234 2.84766,-0.14454 4.25782,-0.26563 -0.0742,0.33984 -0.0977,0.70703 -0.0977,1.04297 0,0.34375 0.0234,0.70703 0.0977,1.04687 l -4.10547,-0.14453 c -1.1211,-0.0234 -2.21485,0.0742 -3.3086,0.0742 -0.68359,0 -1.33984,0.0234 -2.01953,0.0703 0.17188,-2.625 0.21875,-5.2539 0.21875,-7.8789 0,-0.96875 0.0234,-1.94531 0.0234,-2.91406 0,-1.80079 -0.0977,-3.57422 -0.14453,-5.375 z m 0,0"
         id="path2592"
         inkscape:connector-curvature="0" />
      <path
         style="fill:#ccb07f;fill-opacity:1;fill-rule:nonzero;stroke:none"
         d="m 714.69922,218.54297 c 1.28906,0.0234 2.57812,0.14453 3.86719,0.14453 1.82421,0 3.67187,-0.0977 5.49218,-0.12109 -0.12109,0.58593 -0.12109,1.1914 -0.0508,1.80078 0.0274,0.0937 0.0274,0.1914 0.0508,0.28906 -1.84765,-0.14453 -3.69531,-0.33984 -5.54297,-0.28906 -0.0234,0.84765 -0.0469,1.67578 -0.0469,2.52734 0,0.90234 -0.0234,1.79688 -0.0234,2.69922 l 5.51563,-0.19531 c -0.0469,0.39062 -0.1211,0.7539 -0.1211,1.14453 0,0.3125 0.0742,0.60547 0.1211,0.92187 -1.42969,-0.0977 -2.86719,-0.17187 -4.32422,-0.19531 -0.39063,0 -0.80469,-0.0234 -1.19141,-0.0234 0,1.01953 -0.0273,2.06641 -0.0273,3.08985 0,1.01953 0.0273,2.04297 0.0273,3.05859 1.8711,0 3.74219,-0.12109 5.61328,-0.3125 -0.12109,0.58203 -0.12109,1.19141 -0.0508,1.79688 0.0274,0.0977 0.0274,0.19531 0.0508,0.29296 -1.45703,-0.0234 -2.9414,-0.14453 -4.39843,-0.14453 -0.94922,0 -1.92188,0.0742 -2.8711,0.0742 -0.73047,0 -1.43359,0.0234 -2.16406,0.0703 0.0508,-0.46093 0.0508,-0.92187 0.0742,-1.38281 0.0469,-1.51172 0.0977,-3.01953 0.12109,-4.55078 0,-1.21484 0.0234,-2.45312 0.0234,-3.69531 v -2.84375 c 0,-1.26563 -0.0977,-2.57813 -0.14453,-3.83985 z m 0,0"
         id="path2594"
         inkscape:connector-curvature="0" />
      <path
         style="fill:#ccb07f;fill-opacity:1;fill-rule:nonzero;stroke:none"
         d="m 742.26953,221.82422 c -0.48437,-1.26563 -1.41016,-2.06641 -2.79687,-2.06641 -0.80079,0 -1.33594,0.0977 -1.94532,0.65625 -0.48437,0.4375 -0.73047,1.01953 -0.73047,1.67969 0,2.57422 5.73829,3.13281 6.98047,5.97656 0.28907,0.63281 0.41016,1.48438 0.41016,2.16797 0,0.72656 -0.26172,1.64844 -0.58203,2.28125 -0.5586,1.16797 -1.4336,1.82813 -2.57813,2.35938 -1.08984,0.51171 -2.08984,0.63281 -3.27734,0.63281 -1.33984,0 -2.77344,-0.31641 -3.91406,-1.01953 0.28906,-1.02344 0.55859,-2.01953 0.70312,-3.06641 H 735 c 0.36328,1.65625 1.67578,2.60156 3.35547,2.60156 1.5039,0 2.84375,-0.80078 2.84375,-2.45312 0,-0.82813 -0.31641,-1.3125 -0.89844,-1.8711 -0.85156,-0.60937 -1.77344,-1.09765 -2.72266,-1.53125 -0.68359,-0.32031 -1.3125,-0.80468 -1.94531,-1.1914 -1.1914,-0.73047 -1.67578,-2.3125 -1.67578,-3.64844 0,-1.67578 0.55859,-2.79297 1.84766,-3.83984 1.1875,-0.95313 2.25781,-1.19141 3.76562,-1.19141 1.28906,0 2.50391,0.26563 3.625,0.96875 0.0703,0.0742 0.14453,0.0977 0.21485,0.17188 -0.28907,0.77734 -0.53516,1.58203 -0.77735,2.38281 z m 0,0"
         id="path2596"
         inkscape:connector-curvature="0" />
      <path
         style="fill:#ccb07f;fill-opacity:1;fill-rule:nonzero;stroke:none"
         d="m 652.63281,161.84375 -0.53515,2.07031 c -1.45704,0.75 -3.1836,1.04297 -4.8125,1.04297 -1.21485,0 -1.99219,-0.12109 -3.1836,-0.36328 -0.68359,-0.14844 -2.0664,-0.80469 -2.67578,-1.19531 -0.63281,-0.4375 -1.28906,-1.11719 -1.75,-1.72266 -1.07031,-1.4375 -1.53125,-3.01562 -1.53125,-4.81641 0,-2.76953 0.67969,-5.03125 2.79688,-6.90625 1.87109,-1.625 4.44531,-2.23437 6.8789,-2.23437 1.60156,0 3.54688,0.41406 4.95703,1.16797 -0.21484,0.82812 -0.36328,1.65234 -0.55859,2.47656 h -0.33984 c -0.89844,-1.28516 -2.45704,-2.13672 -4.03125,-2.13672 -4.03907,0 -5.69141,3.76953 -5.69141,7.29688 0,1.72265 0.36328,3.51953 1.43359,4.92968 1.01953,1.33985 2.69922,2.07032 4.375,2.07032 1.50782,0 3.26172,-0.78125 4.35157,-1.80078 z m 0,0"
         id="path2598"
         inkscape:connector-curvature="0" />
      <path
         style="fill:#ccb07f;fill-opacity:1;fill-rule:nonzero;stroke:none"
         d="m 662.11719,148.13281 c 0.72656,0 1.45703,-0.0508 2.16406,-0.14844 0.33594,0.70704 0.67969,1.4336 1.01953,2.14063 0.36328,0.77734 0.73047,1.53125 1.09375,2.28516 0.33984,0.70703 0.70703,1.41406 1.04297,2.11718 0.125,0.26563 0.26953,0.60938 0.48828,0.80078 0,0.0742 0.36719,-0.46093 0.39063,-0.48437 0.14453,-0.24219 0.28906,-0.51172 0.41015,-0.75391 0.51172,-0.94922 0.97656,-1.92187 1.4375,-2.86718 0.31641,-0.66016 0.60547,-1.33985 0.89844,-1.9961 0.16797,-0.41406 0.33984,-0.80078 0.53516,-1.21484 0.0976,0.0234 0.1914,0.0234 0.28906,0.0469 0.66015,0.1211 1.33984,0.0742 1.99609,-0.0469 -1.70312,3.18359 -3.52344,6.125 -5.05859,9.23828 -0.0234,0.92187 -0.0469,1.87109 -0.0469,2.79297 0,1.53515 0.14453,3.0664 0.24219,4.59765 -0.67969,-0.0469 -1.38281,-0.12109 -2.06641,-0.12109 -0.70312,0 -1.38671,0.0508 -2.0664,0.12109 0.17187,-1.84765 0.26953,-3.69531 0.26953,-5.54296 0.0195,-0.46094 0.0195,-0.90235 0.0195,-1.36329 -1.82031,-3.13281 -3.42187,-6.41796 -5.25,-9.72265 0.73047,0.0469 1.46094,0.12109 2.19141,0.12109"
         id="path2600"
         inkscape:connector-curvature="0" />
      <path
         style="fill:#ccb07f;fill-opacity:1;fill-rule:nonzero;stroke:none"
         d="m 683.28516,148.01172 c 0.32031,0.0234 0.65625,0.12109 0.97656,0.12109 0.33984,0 0.67969,-0.0742 0.99609,-0.12109 1.77344,3.89062 3.69531,7.68359 5.61328,11.5 l 1.4336,-2.79688 c 1.48437,-2.86718 2.89453,-5.76172 4.23047,-8.70312 0.0976,0.0234 0.17187,0.0234 0.26953,0.0469 0.60937,0.0977 1.21484,0.0742 1.79687,-0.0469 0.41797,3.79297 0.87891,7.58594 1.33985,11.375 0.16796,1.41015 0.39062,2.82031 0.58203,4.23047 0.0469,0.29297 0.17187,0.68359 0.17187,1.02343 -0.65625,-0.0469 -1.33984,-0.12109 -1.99609,-0.12109 -0.65235,0 -1.3125,0.0742 -1.96875,0.12109 -0.16797,-3.74609 -0.65625,-7.46093 -1.01953,-11.20703 -1.84766,3.71875 -3.67188,7.4375 -5.39453,11.20703 -0.32032,-0.0469 -0.60938,-0.0703 -0.92579,0 L 687.51953,160.75 c -1.11719,-2.35547 -2.3125,-4.69141 -3.45312,-7.05078 -0.17188,1.4375 -0.36329,2.87109 -0.51172,4.30078 -0.0742,0.92578 -0.16797,1.82812 -0.24219,2.75 -0.0508,0.80469 -0.125,1.58203 -0.17188,2.38281 -0.0234,0.51172 -0.0469,0.9961 -0.0977,1.50781 -0.36328,-0.0703 -0.75,-0.12109 -1.14063,-0.12109 -0.36328,0 -0.7539,0.0508 -1.11718,0.12109 0,-0.24218 0.12109,-0.73046 0.16796,-0.89843 0.26563,-1.21485 0.4375,-2.45703 0.65625,-3.69922 0.26954,-1.57813 0.46094,-3.15625 0.6836,-4.73828 z m 0,0"
         id="path2602"
         inkscape:connector-curvature="0" />
      <path
         style="fill:#ccb07f;fill-opacity:1;fill-rule:nonzero;stroke:none"
         d="m 713.72266,158.34375 c -0.21875,-0.41016 -0.46094,-0.85156 -0.70313,-1.23828 -0.0742,-0.0977 -0.0508,-0.125 -0.17187,-0.14844 0,0 -0.1211,0 -0.1211,0.14844 0,1.43359 0.0469,2.89453 0.0469,4.32422 0.0273,0.21875 0.0273,0.4414 0.0273,0.65625 0.0234,0.85156 0.12109,1.70312 0.16797,2.55468 -0.65625,-0.0469 -1.3125,-0.12109 -1.96875,-0.12109 -0.65625,0 -1.3125,0.0742 -1.96875,0.12109 l 0.0234,-0.46093 c 0.0273,-0.53516 0.0508,-1.07032 0.10156,-1.60547 0.12109,-1.58203 0.12109,-3.1875 0.12109,-4.78906 0,-1.46094 -0.0273,-2.94141 -0.0273,-4.40235 0,-1.79687 -0.0703,-3.57031 -0.16797,-5.37109 l 1.67578,0.0469 c 1.16406,0.0234 2.33594,-0.0742 3.5,-0.0742 1.14063,0 2.91797,-0.043 3.91406,0.51172 1.41016,0.80078 2.14063,1.89844 2.14063,3.55078 0,2.38282 -1.53125,3.88672 -3.79297,4.375 1.33984,2.33204 2.84375,4.57032 4.30469,6.83204 l 0.875,1.38671 c -0.73047,-0.0469 -1.48438,-0.12109 -2.21485,-0.12109 -0.73046,0 -1.45703,0.0508 -2.18359,0.12109 l -2.82422,-4.98437 z m -0.92188,-6.07813 c 0,0.63282 -0.0273,1.26563 -0.0273,1.89454 0,0.58593 0,1.16796 -0.0234,1.7539 2.53125,0.24219 3.79687,-0.97265 3.79687,-3.47656 0,-0.51172 -0.0273,-0.70703 -0.125,-1.21484 -0.4375,-2.01954 -1.96875,-1.75391 -3.62109,-1.85157 z m 0,0"
         id="path2604"
         inkscape:connector-curvature="0" />
      <path
         style="fill:#ccb07f;fill-opacity:1;fill-rule:nonzero;stroke:none"
         d="m 744.57031,151.55859 c -0.0234,0.78125 -0.0703,1.58203 -0.0703,2.38672 0,0.89844 -0.0469,1.79688 -0.0742,2.67188 -0.0469,2.76953 -0.0234,5.30078 -2.55078,7.05078 -1.31641,0.94922 -2.99219,1.28906 -4.59766,1.28906 -2.9414,0 -6.125,-0.92578 -7.02343,-4.08594 -0.125,-0.4375 -0.17188,-0.87109 -0.22266,-1.3125 -0.0703,-0.53515 -0.0469,-1.11718 -0.0469,-1.67578 -0.0234,-1 -0.0469,-1.99219 -0.0469,-3.01562 0,-0.9961 -0.0273,-2.01953 -0.0273,-3.03907 0,-0.92187 -0.0234,-1.875 -0.0234,-2.79687 0,-0.33984 -0.0469,-0.67969 -0.0469,-1.02344 0.6836,0.0508 1.33594,0.125 2.01563,0.125 0.66015,0 1.3164,-0.0508 1.96875,-0.14844 -0.0195,0.39063 -0.0703,0.80469 -0.11719,1.19532 -0.125,1.91797 -0.19922,3.78906 -0.19922,5.6875 0,1.33593 -0.0469,3.33203 0.17188,4.59375 0.21875,1.1914 0.41406,1.94531 1.28906,2.79687 0.77734,0.73047 1.69922,1.04688 2.77344,1.04688 2.25781,0 3.47265,-0.82813 4.32422,-2.94141 0.4414,-1.07422 0.4414,-3.84375 0.4414,-5.03516 0,-2.42968 -0.0234,-4.88671 -0.19531,-7.32031 0.41016,0.0742 0.82422,0.125 1.23828,0.125 0.41406,0 0.82813,-0.0508 1.21484,-0.125 -0.11718,1.17188 -0.14453,2.36328 -0.19531,3.55078"
         id="path2606"
         inkscape:connector-curvature="0" />
      <path
         style="fill:#3d4f7f;fill-opacity:1;fill-rule:nonzero;stroke:none"
         d="m 693.66406,121.42188 0.16797,12.05859 0.22266,6.0039 0.11328,1.21875 c -0.83594,-0.0547 -1.72656,-0.27343 -2.5586,-0.27343 -1,0 -1.94531,0.21875 -2.94531,0.27343 0.0586,-0.38671 0.0586,-0.83203 0.11328,-1.21875 L 689,135.09375 l 0.22266,-13.00781 v -13.5586 l -0.28125,-5.89062 c 0.94531,0.0586 1.89062,0.22266 2.83593,0.22266 0.83203,0 1.72266,-0.10938 2.55469,-0.16407 -0.0547,0.4961 -0.0547,0.9961 -0.10937,1.5 L 694,109.25 l -0.27734,9.67188 z m 0,0"
         id="path2608"
         inkscape:connector-curvature="0" />
      <path
         style="fill:#3d4f7f;fill-opacity:1;fill-rule:nonzero;stroke:none"
         d="m 678.07031,138.01953 c 0.66797,2.25391 -11.45312,3.07422 -15.91797,3.07422 -14.52734,0 -26.01172,-7.44531 -26.01172,-20.00781 0,-11.77735 11.48438,-20.00391 26.01172,-20.00391 5.17578,0 10.5586,0.94531 15.16797,2.72266 l -2.33984,3.78125 c -3.19141,-1.44531 -7.86719,-2.5 -12.82813,-2.5 -11.41015,0 -19.49218,7.11328 -19.49218,16 0,8.89843 8.08203,16.00781 19.49218,16.00781 3.39844,0 7.16016,-0.66797 9.85157,-1.60938 l 0.76171,-0.65234 v -11.44922 l -0.28125,-5.89062 c 0.94532,0.0586 2.78125,0.22265 3.73047,0.22265 0.83203,0 1.72266,-0.10937 2.55469,-0.16406 -0.0547,0.4961 -0.0547,0.9961 -0.10937,1.4961 l -0.22266,5.0625 z m 0,0"
         id="path2610"
         inkscape:connector-curvature="0" />
      <path
         style="fill:#3d4f7f;fill-opacity:1;fill-rule:nonzero;stroke:none"
         d="m 743.41406,138.01953 c 0.66797,2.25391 -11.45312,3.07422 -15.91797,3.07422 -14.52734,0 -26.01172,-7.44531 -26.01172,-20.00781 0,-11.77735 11.48438,-20.00391 26.01172,-20.00391 5.17188,0 10.55469,0.94531 15.16797,2.72266 l -2.34375,3.78125 c -3.1875,-1.44531 -7.86328,-2.5 -12.82422,-2.5 -11.41015,0 -19.49218,7.11328 -19.49218,16 0,8.89843 8.08203,16.00781 19.49218,16.00781 3.40235,0 7.15625,-0.66797 9.85157,-1.60938 l 0.75781,-0.65234 v -11.44922 l -0.27735,-5.89062 c 0.94532,0.0586 2.78125,0.22265 3.73047,0.22265 0.83203,0 1.72266,-0.10937 2.55469,-0.16406 -0.0547,0.4961 -0.0547,0.9961 -0.11328,1.4961 l -0.22266,5.0625 z m 0,0"
         id="path2612"
         inkscape:connector-curvature="0" />
    </g>
  </g>
</svg>
